<svg width="188" height="237" viewBox="0 0 188 237" fill="none" xmlns="http://www.w3.org/2000/svg">
<path d="M86 226V4H121.5V94C141.5 92.3333 181.5 94.9 181.5 118.5V226H147.5V137C147.5 122.5 121.5 122.5 121.5 137V226H86Z" fill="white" stroke="white" stroke-width="6"/>
<path d="M41.5 4H7V225.5H41.5V155L45.5 149.5L76 203V151L62 127.5L76 110.5V72.75L41.5 116.75V4Z" fill="white" stroke="white" stroke-width="6"/>
<path d="M100.089 185.673L100.093 192.138C100.093 192.19 100.06 192.216 99.9952 192.216L86.255 192.206C86.2029 192.206 86.1768 192.18 86.1768 192.127L86.1728 185.702C86.1728 185.65 86.2053 185.624 86.2704 185.623L88.5067 185.622C88.5588 185.622 88.5849 185.648 88.5849 185.7L88.5875 189.802L91.7125 189.8L91.7099 185.698C91.7099 185.646 91.7359 185.62 91.788 185.62L94.0536 185.599C94.1057 185.599 94.1317 185.625 94.1318 185.677L94.1343 189.798L97.6304 189.796L97.6279 185.675C97.6278 185.623 97.6604 185.597 97.7255 185.597L100.011 185.595C100.063 185.595 100.089 185.621 100.089 185.673ZM100.279 177.756C100.28 178.478 100.101 179.13 99.7433 179.709C99.3856 180.295 98.9041 180.768 98.2989 181.126C97.6936 181.478 97.0166 181.654 96.2679 181.655L89.9301 181.659C89.2009 181.659 88.5367 181.481 87.9375 181.123C87.3318 180.772 86.8498 180.3 86.4913 179.708C86.1264 179.115 85.9437 178.468 85.9433 177.765C85.9428 177.029 86.1182 176.365 86.4694 175.772C86.8271 175.18 87.3053 174.71 87.904 174.365C88.5028 174.013 89.1765 173.837 89.9252 173.836L90.8432 173.836C90.8952 173.836 90.9213 173.868 90.9213 173.933L90.9227 176.18C90.9228 176.232 90.8967 176.258 90.8447 176.258L90.0829 176.258C89.5751 176.259 89.1553 176.402 88.8234 176.689C88.4916 176.975 88.3258 177.334 88.3261 177.763C88.3263 178.147 88.486 178.489 88.8052 178.788C89.1244 179.088 89.4989 179.237 89.9286 179.237L96.2664 179.233C96.7026 179.233 97.0802 179.086 97.399 178.793C97.7113 178.5 97.8673 178.154 97.8671 177.757C97.8668 177.328 97.7136 176.97 97.4074 176.683C97.0948 176.397 96.7138 176.254 96.2646 176.254L95.2783 176.255L95.2791 177.651C95.2792 177.723 95.2466 177.759 95.1815 177.759L92.9452 177.76C92.8801 177.76 92.8475 177.725 92.8475 177.653L92.8452 173.913C92.8451 173.861 92.8777 173.835 92.9428 173.835L96.2631 173.832C97.0118 173.832 97.689 174.007 98.2947 174.359C98.9003 174.716 99.3824 175.188 99.7408 175.774C100.099 176.359 100.279 177.02 100.279 177.756ZM100.272 166.313C100.273 167.022 100.091 167.677 99.7264 168.276C99.3622 168.869 98.8775 169.348 98.2722 169.712C97.6605 170.071 96.99 170.25 96.2608 170.251L89.9229 170.235C89.1808 170.236 88.5133 170.057 87.9207 169.699C87.3215 169.348 86.8427 168.873 86.4842 168.275C86.1193 167.676 85.9366 167.025 85.9361 166.322C85.9357 165.593 86.1143 164.938 86.472 164.359C86.8297 163.772 87.3112 163.303 87.9165 162.951C88.5152 162.593 89.1824 162.413 89.9181 162.413L96.2559 162.39C96.9851 162.389 97.6525 162.564 98.2582 162.916C98.8704 163.273 99.359 163.748 99.724 164.34C100.089 164.933 100.272 165.59 100.272 166.313ZM97.86 166.314C97.8597 165.911 97.6967 165.559 97.371 165.26C97.0388 164.961 96.6676 164.811 96.2575 164.811L89.9196 164.835C89.4769 164.835 89.1026 164.975 88.7968 165.255C88.491 165.536 88.3382 165.891 88.3385 166.32C88.3387 166.73 88.4887 167.082 88.7883 167.375C89.088 167.667 89.4657 167.814 89.9214 167.813L96.2593 167.809C96.6955 167.809 97.073 167.662 97.3919 167.369C97.7042 167.076 97.8602 166.724 97.86 166.314ZM100.07 156.13L100.072 158.395C100.072 158.447 100.039 158.473 99.9742 158.474L86.234 158.443C86.1819 158.443 86.1558 158.417 86.1558 158.365L86.1533 154.322C86.1528 153.599 86.3282 152.935 86.6794 152.329C87.0306 151.724 87.5023 151.242 88.0945 150.883C88.6867 150.518 89.3572 150.336 90.1059 150.335C90.5941 150.335 91.0369 150.409 91.4341 150.559C91.8314 150.708 92.1668 150.884 92.4403 151.086C92.7139 151.281 92.9158 151.46 93.0461 151.622C93.8464 150.899 94.787 150.537 95.8677 150.537L99.9693 150.515C100.034 150.515 100.067 150.547 100.067 150.612L100.068 152.878C100.068 152.93 100.049 152.956 100.01 152.956L95.8692 152.959C95.3874 152.959 94.9709 153.128 94.6195 153.467C94.2682 153.806 94.0927 154.223 94.093 154.717L94.0938 156.036L99.9727 156.052C100.038 156.052 100.07 156.078 100.07 156.13ZM88.5458 154.32L88.5469 156.039L91.6914 156.037L91.6904 154.319C91.6901 153.908 91.5369 153.544 91.2307 153.225C90.9245 152.9 90.5501 152.737 90.1074 152.737C89.6842 152.738 89.3197 152.894 89.0139 153.207C88.7016 153.52 88.5456 153.891 88.5458 154.32ZM100.058 136.486L100.06 138.752C100.06 138.804 100.027 138.83 99.962 138.83L86.2413 138.799C86.1762 138.799 86.1436 138.773 86.1436 138.721L86.1422 136.475C86.1421 136.423 86.1747 136.397 86.2398 136.397L90.9761 136.394L86.2183 133.262C86.1662 133.21 86.1401 133.161 86.1401 133.116L86.1386 130.821C86.1386 130.762 86.1646 130.749 86.2167 130.782L91.7365 134.235L99.9762 130.353C100.028 130.321 100.054 130.353 100.054 130.451L100.056 132.892C100.056 132.957 100.03 132.996 99.9779 133.009L94.1007 135.718L95.1948 136.411L99.9605 136.408C100.026 136.408 100.058 136.434 100.058 136.486ZM100.051 124.711L100.052 126.977C100.052 127.029 100.02 127.055 99.9546 127.055L86.2144 127.044C86.1623 127.044 86.1363 127.011 86.1362 126.946L86.1348 124.72C86.1348 124.655 86.1608 124.622 86.2129 124.622L91.6524 124.638L91.6505 121.64L86.211 121.643C86.159 121.643 86.1329 121.617 86.1329 121.565L86.1315 119.339C86.1314 119.274 86.1575 119.241 86.2095 119.241L99.9497 119.193C100.015 119.193 100.047 119.226 100.047 119.291L100.049 121.537C100.049 121.602 100.016 121.635 99.9513 121.635L94.0724 121.639L94.0742 124.637L99.9531 124.633C100.018 124.633 100.051 124.659 100.051 124.711ZM100.238 111.461C100.238 112.171 100.056 112.825 99.6923 113.424C99.328 114.017 98.8433 114.496 98.2381 114.861C97.6263 115.219 96.9558 115.399 96.2267 115.399L89.8888 115.384C89.1466 115.384 88.4792 115.206 87.8865 114.848C87.2873 114.497 86.8085 114.022 86.4501 113.423C86.0851 112.824 85.9024 112.173 85.902 111.47C85.9015 110.741 86.0801 110.087 86.4379 109.507C86.7956 108.921 87.277 108.452 87.8823 108.1C88.481 107.741 89.1482 107.562 89.8839 107.561L96.2218 107.538C96.951 107.538 97.6184 107.713 98.2241 108.064C98.8363 108.422 99.3248 108.897 99.6898 109.489C100.055 110.081 100.237 110.739 100.238 111.461ZM97.8258 111.463C97.8255 111.059 97.6626 110.708 97.3369 110.408C97.0046 110.109 96.6335 109.96 96.2233 109.96L89.8854 109.983C89.4427 109.984 89.0684 110.124 88.7626 110.404C88.4568 110.684 88.304 111.039 88.3043 111.469C88.3046 111.879 88.4545 112.23 88.7542 112.523C89.0538 112.816 89.4315 112.962 89.8873 112.962L96.2252 112.958C96.6614 112.958 97.0389 112.811 97.3577 112.518C97.67 112.225 97.826 111.873 97.8258 111.463ZM100.036 101.278L100.038 103.544C100.038 103.596 100.005 103.622 99.9401 103.622L86.1998 103.591C86.1477 103.592 86.1217 103.565 86.1216 103.513L86.1191 99.4704C86.1187 98.7478 86.294 98.0836 86.6452 97.4779C86.9964 96.8722 87.4681 96.3902 88.0603 96.0317C88.6525 95.6668 89.323 95.4841 90.0717 95.4836C90.56 95.4833 91.0027 95.5579 91.4 95.7074C91.7972 95.8569 92.1326 96.0324 92.4062 96.2341C92.6797 96.4292 92.8816 96.6082 93.012 96.7708C93.8123 96.0477 94.7528 95.6858 95.8335 95.6851L99.9351 95.663C100 95.663 100.033 95.6955 100.033 95.7606L100.034 98.0262C100.034 98.0783 100.015 98.1044 99.9757 98.1044L95.8351 98.107C95.3533 98.1073 94.9367 98.2768 94.5854 98.6156C94.234 98.9543 94.0585 99.3711 94.0588 99.8659L94.0596 101.184L99.9385 101.2C100.004 101.2 100.036 101.226 100.036 101.278ZM88.5117 99.4689L88.5128 101.188L91.6573 101.186L91.6562 99.467C91.656 99.0568 91.5027 98.6923 91.1965 98.3735C90.8904 98.0482 90.5159 97.8857 90.0732 97.8859C89.65 97.8862 89.2855 98.0427 88.9797 98.3554C88.6674 98.6681 88.5114 99.0393 88.5117 99.4689ZM100.223 88.2824C100.224 88.992 100.042 89.6464 99.6778 90.2456C99.3136 90.8383 98.8289 91.3171 98.2236 91.682C97.6119 92.0405 96.9414 92.2199 96.2122 92.2204L89.8743 92.2048C89.1322 92.2053 88.4647 92.0267 87.8721 91.669C87.2729 91.3178 86.7941 90.8428 86.4356 90.2441C86.0707 89.6453 85.888 88.9944 85.8875 88.2913C85.8871 87.5621 86.0657 86.9077 86.4234 86.3281C86.7811 85.7419 87.2626 85.2728 87.8679 84.9209C88.4666 84.5625 89.1338 84.383 89.8695 84.3825L96.2074 84.3591C96.9365 84.3586 97.6039 84.534 98.2096 84.8852C98.8218 85.2429 99.3104 85.7178 99.6754 86.31C100.04 86.9023 100.223 87.5597 100.223 88.2824ZM97.8114 88.2839C97.8111 87.8802 97.6481 87.5287 97.3224 87.2295C96.9902 86.9302 96.619 86.7807 96.2089 86.7809L89.871 86.8044C89.4283 86.8047 89.054 86.9449 88.7482 87.225C88.4424 87.5052 88.2896 87.8601 88.2899 88.2898C88.2901 88.6999 88.4401 89.0514 88.7398 89.3442C89.0394 89.637 89.4171 89.7832 89.8728 89.7829L96.2107 89.779C96.6469 89.7787 97.0244 89.632 97.3433 89.3388C97.6556 89.0457 97.8116 88.694 97.8114 88.2839ZM100.216 77.0445C100.217 77.7541 100.035 78.4085 99.6708 79.0077C99.3066 79.6004 98.8219 80.0759 98.2166 80.4344C97.6049 80.7863 96.9344 80.9625 96.2052 80.963L95.2873 80.9635C95.2157 80.9636 95.1798 80.9311 95.1798 80.866L95.1784 78.6199C95.1784 78.5678 95.2141 78.5417 95.2858 78.5417L96.2037 78.5411C96.6399 78.5408 97.0174 78.3941 97.3363 78.1009C97.6486 77.8078 97.8046 77.4561 97.8044 77.046C97.8041 76.6293 97.6444 76.2746 97.3252 75.9818C96.9995 75.689 96.625 75.5428 96.2019 75.5431C95.7136 75.5434 95.2873 75.8626 94.9232 76.5009C94.8581 76.6051 94.7801 76.7419 94.689 76.9112C94.5915 77.074 94.4809 77.2694 94.3574 77.4973C94.2338 77.7253 94.1135 77.9467 93.9965 78.1616C93.8729 78.3765 93.7558 78.5849 93.6453 78.7868C93.2161 79.5163 92.6793 80.0602 92.035 80.4187C91.3842 80.7707 90.6551 80.9469 89.8478 80.9474C89.1056 80.9479 88.4349 80.766 87.8357 80.4018C87.2431 80.0376 86.774 79.5626 86.4286 78.9769C86.0767 78.3846 85.9005 77.7435 85.9001 77.0534C85.8996 76.3437 86.075 75.6926 86.4262 75.0999C86.7839 74.5073 87.2589 74.035 87.8511 73.683C88.4433 73.3246 89.1073 73.1451 89.8429 73.1447L91.4836 73.1436C91.5357 73.1436 91.5617 73.1696 91.5617 73.2217L91.5631 75.4678C91.5632 75.5199 91.5371 75.546 91.4851 75.546L89.8445 75.5665C89.3757 75.5668 88.9949 75.7136 88.7021 76.0067C88.4094 76.2999 88.2631 76.6483 88.2633 77.0519C88.2636 77.4621 88.4201 77.8135 88.7328 78.1063C89.0454 78.3991 89.4166 78.5453 89.8463 78.5451C90.2825 78.5448 90.647 78.4534 90.9399 78.2709C91.2327 78.082 91.5125 77.74 91.7791 77.245C91.8051 77.1929 91.8701 77.0724 91.9742 76.8836C92.0782 76.6947 92.1953 76.4863 92.3254 76.2584C92.4489 76.0239 92.5627 75.8122 92.6668 75.6234C92.7643 75.4345 92.8228 75.3205 92.8423 75.2815C93.213 74.6172 93.6684 74.0928 94.2085 73.7084C94.7486 73.3174 95.4126 73.1217 96.2004 73.1212C96.9621 73.1207 97.6458 73.2961 98.2515 73.6472C98.8572 74.0049 99.336 74.4799 99.6879 75.0721C100.04 75.6644 100.216 76.3218 100.216 77.0445ZM100.015 66.9883L100.016 69.254C100.016 69.306 99.9838 69.3321 99.9187 69.3321L86.1785 69.3212C86.1264 69.3212 86.1003 69.2887 86.1003 69.2236L86.0989 66.997C86.0988 66.9319 86.1249 66.8993 86.1769 66.8993L91.6164 66.9154L91.6145 63.9174L86.1751 63.9208C86.123 63.9208 86.0969 63.8948 86.0969 63.8427L86.0955 61.6161C86.0955 61.551 86.1215 61.5185 86.1736 61.5184L99.9138 61.4708C99.9789 61.4708 100.011 61.5033 100.012 61.5684L100.013 63.8145C100.013 63.8796 99.9804 63.9122 99.9153 63.9122L94.0364 63.9159L94.0383 66.9139L99.9172 66.9103C99.9823 66.9102 100.015 66.9362 100.015 66.9883ZM100.007 55.0766L100.009 57.3422C100.009 57.4073 99.9764 57.4399 99.9113 57.44L86.171 57.429C86.119 57.429 86.0929 57.403 86.0929 57.3509L86.0915 55.1048C86.0914 55.0527 86.1175 55.0267 86.1695 55.0266L99.9098 54.9986C99.9749 54.9985 100.007 55.0245 100.007 55.0766ZM100.002 46.6708L100.004 48.9657C100.004 49.0113 99.9777 49.0341 99.9256 49.0341L94.242 49.0181L86.1675 51.6989C86.1154 51.712 86.0893 51.6924 86.0893 51.6404L86.0879 49.4138C86.0879 49.3487 86.1139 49.3096 86.166 49.2966L91.5459 47.8186L86.1641 46.3181C86.112 46.3051 86.086 46.2725 86.0859 46.2204L86.0845 43.9744C86.0845 43.9223 86.1105 43.9027 86.1626 43.9157L94.1624 46.6158L99.9241 46.5927C99.9761 46.5927 100.002 46.6187 100.002 46.6708Z" fill="white"/>
</svg>
